<svg xmlns="http://www.w3.org/2000/svg" width="1200" height="360" viewBox="0 0 1200 360" role="img" aria-labelledby="title desc">
  <title id="title">Jovlo.ai logo concept 02 - Itinerary Loom</title>
  <desc id="desc">A folded map and co-created itinerary route beside a warm Jovlo.ai wordmark.</desc>
  <defs>
    <linearGradient id="mapFill" x1="72" y1="72" x2="288" y2="288" gradientUnits="userSpaceOnUse">
      <stop offset="0" stop-color="#FFF7F0"/>
      <stop offset="1" stop-color="#F2FBF7"/>
    </linearGradient>
    <linearGradient id="loomRoute" x1="86" y1="245" x2="267" y2="112" gradientUnits="userSpaceOnUse">
      <stop offset="0" stop-color="#3DA5FF"/>
      <stop offset="0.52" stop-color="#FF6B5F"/>
      <stop offset="1" stop-color="#F7C948"/>
    </linearGradient>
  </defs>
  <g transform="translate(24 0)">
    <rect x="70" y="70" width="220" height="220" rx="58" fill="url(#mapFill)" stroke="#FFE1D8" stroke-width="4"/>
    <path d="M112 90 L154 76 L154 270 L112 284 Z" fill="#EAF7FF" opacity="0.95"/>
    <path d="M154 76 L206 92 L206 284 L154 270 Z" fill="#FFF1EB" opacity="0.95"/>
    <path d="M206 92 L248 78 L248 270 L206 284 Z" fill="#EFFBF4" opacity="0.95"/>
    <path d="M96 238 C128 214 129 170 162 165 C195 160 200 214 232 199 C252 190 252 148 270 124"
      fill="none" stroke="url(#loomRoute)" stroke-width="18" stroke-linecap="round" stroke-linejoin="round"/>
    <path d="M96 238 C128 214 129 170 162 165 C195 160 200 214 232 199 C252 190 252 148 270 124"
      fill="none" stroke="#FFFFFF" stroke-width="4" stroke-linecap="round" stroke-linejoin="round" opacity="0.82"/>
    <g fill="#FFFFFF" stroke="#102B2A" stroke-width="5">
      <circle cx="96" cy="238" r="13"/>
      <circle cx="162" cy="165" r="12"/>
      <circle cx="232" cy="199" r="12"/>
      <circle cx="270" cy="124" r="13"/>
    </g>
    <path d="M226 106 C226 91 237 80 253 80 C268 80 279 91 279 106 C279 124 253 153 253 153 C253 153 226 124 226 106 Z" fill="#FF6B5F"/>
    <circle cx="253" cy="106" r="8" fill="#FFFFFF"/>
    <path d="M118 115 C134 92 166 91 181 116 C170 112 160 112 149 116 C138 120 128 120 118 115 Z" fill="#3DA5FF"/>
  </g>
  <g transform="translate(344 128)">
    <text x="0" y="77" font-family="-apple-system, BlinkMacSystemFont, 'SF Pro Display', 'Inter', 'Segoe UI', sans-serif" font-size="98" font-weight="760" fill="#102B2A">Jovlo.ai</text>
    <path d="M8 116 H474" stroke="#EFE4DA" stroke-width="4" stroke-linecap="round"/>
    <path d="M8 116 H162" stroke="#FF6B5F" stroke-width="4" stroke-linecap="round"/>
  </g>
</svg>
