<svg xmlns="http://www.w3.org/2000/svg" width="1200" height="360" viewBox="0 0 1200 360" role="img" aria-labelledby="title desc">
  <title id="title">Jovlo logo concept 01 - Neural Route</title>
  <desc id="desc">A route shaped like a soft J, with AI-like nodes and a clean Jovlo wordmark.</desc>
  <defs>
    <linearGradient id="routeGradient" x1="80" y1="70" x2="280" y2="292" gradientUnits="userSpaceOnUse">
      <stop offset="0" stop-color="#5E7BFF"/>
      <stop offset="0.55" stop-color="#20C7B8"/>
      <stop offset="1" stop-color="#FFB703"/>
    </linearGradient>
    <filter id="softGlow" x="-30%" y="-30%" width="160%" height="160%">
      <feDropShadow dx="0" dy="10" stdDeviation="12" flood-color="#20C7B8" flood-opacity="0.18"/>
    </filter>
  </defs>
  <g transform="translate(24 0)">
    <circle cx="180" cy="180" r="122" fill="#F5FCFB" stroke="#D6F0EC" stroke-width="4"/>
    <circle cx="180" cy="180" r="84" fill="none" stroke="#E5F5F2" stroke-width="3" stroke-dasharray="4 12" stroke-linecap="round"/>
    <path d="M222 92 C170 105 142 135 148 169 C154 205 207 204 216 237 C224 266 201 286 164 286"
      fill="none" stroke="url(#routeGradient)" stroke-width="23" stroke-linecap="round" stroke-linejoin="round" filter="url(#softGlow)"/>
    <path d="M222 92 C170 105 142 135 148 169 C154 205 207 204 216 237 C224 266 201 286 164 286"
      fill="none" stroke="#FFFFFF" stroke-width="5" stroke-linecap="round" stroke-linejoin="round" opacity="0.78"/>
    <g fill="#FFFFFF" stroke="#14213D" stroke-width="5">
      <circle cx="222" cy="92" r="14"/>
      <circle cx="148" cy="169" r="12"/>
      <circle cx="216" cy="237" r="12"/>
      <circle cx="164" cy="286" r="14"/>
    </g>
    <path d="M246 125 L255 144 L276 153 L255 162 L246 181 L237 162 L216 153 L237 144 Z" fill="#FFB703"/>
    <circle cx="113" cy="229" r="8" fill="#5E7BFF"/>
    <circle cx="258" cy="224" r="7" fill="#20C7B8"/>
  </g>
  <g transform="translate(344 128)">
    <text x="0" y="77" font-family="-apple-system, BlinkMacSystemFont, 'SF Pro Display', 'Inter', 'Segoe UI', sans-serif" font-size="98" font-weight="760" fill="#14213D">Jovlo</text>
    <path d="M5 116 H474" stroke="#DDE9E7" stroke-width="4" stroke-linecap="round"/>
    <path d="M5 116 H162" stroke="#20C7B8" stroke-width="4" stroke-linecap="round"/>
  </g>
</svg>
